<?xml version="1.0" encoding="utf-8"?>
<!-- Generator: Adobe Illustrator 25.2.0, SVG Export Plug-In . SVG Version: 6.00 Build 0)  -->
<svg version="1.1" id="Layer_1" xmlns="http://www.w3.org/2000/svg" xmlns:xlink="http://www.w3.org/1999/xlink" x="0px" y="0px"
	 viewBox="0 0 1800 500" style="enable-background:new 0 0 1800 500;" xml:space="preserve">
<g>
	<path d="M44.97,358.38h16.92c5.94,29.09,17.02,49.62,33.24,61.59c16.23,11.97,32.85,17.96,49.87,17.96
		c15.63,0,27.11-3.51,34.43-10.54c7.32-7.02,10.98-16.27,10.98-27.75c0-10.88-3.96-20.18-11.87-27.9
		c-4.35-4.16-11.38-8.61-21.07-13.36l-45.12-21.96c-23.75-11.67-40.76-24.34-51.05-37.99c-10.49-13.65-15.73-29.78-15.73-48.38
		c0-23.55,8.21-43.88,24.64-61c16.42-17.11,39.38-25.67,68.86-25.67c12.86,0,26.52,2.13,40.96,6.38
		c14.45,4.26,23.45,6.38,27.01,6.38c4.95,0,8.46-1.04,10.54-3.12c2.08-2.08,3.81-4.99,5.19-8.76h13.36v87.86h-15.43
		c-5.74-20.58-15.14-37.1-28.2-49.57c-13.06-12.47-28.3-18.7-45.71-18.7c-13.46,0-23.5,3.76-30.13,11.28
		c-6.63,7.52-9.94,15.63-9.94,24.34c0,7.12,2.97,14.25,8.9,21.37c5.74,7.32,16.62,14.84,32.65,22.56l33.24,16.03
		c20.58,9.9,35.62,19.49,45.12,28.79c15.83,15.83,23.75,35.32,23.75,58.47c0,22.56-8.16,43.59-24.49,63.07
		C209.55,449.26,185.07,459,152.42,459c-8.11,0-16.28-0.84-24.49-2.52c-8.21-1.68-18.35-4.6-30.42-8.76l-10.39-3.56
		c-3.76-1.38-6.08-2.17-6.98-2.37c-0.89-0.2-2.03-0.3-3.41-0.3c-3.36,0-6.28,1.34-8.76,4.01c-2.47,2.67-5.29,7.17-8.46,13.51H44.97
		V358.38z"/>
	<path d="M309.37,205.22c26.02-28.29,58.72-42.45,98.1-42.45c40.17,0,73.07,14.45,98.69,43.34c25.63,28.89,38.44,63.92,38.44,105.07
		c0,40.57-12.66,75.44-37.99,104.63c-25.33,29.19-58.37,43.78-99.14,43.78c-39.58,0-72.33-14.2-98.25-42.59
		c-25.92-28.39-38.88-63.67-38.88-105.82C270.34,268.84,283.35,233.52,309.37,205.22z M366.21,400.53
		c6.93,26.32,20.68,39.48,41.26,39.48c19.59,0,32.45-10.09,38.59-30.28s9.2-53.03,9.2-98.54c0-45.31-3.22-78.11-9.65-98.4
		c-6.43-20.28-19.05-30.42-37.84-30.42c-20.58,0-34.33,13.16-41.26,39.48c-4.55,17.61-6.83,47.39-6.83,89.34
		C359.68,353.73,361.86,383.52,366.21,400.53z"/>
	<path d="M561.6,435.85c10.69-2.57,18.25-5.98,22.71-10.24c4.45-4.25,6.68-13.11,6.68-26.57V89.46c0-12.99-2.08-21.47-6.23-25.47
		c-4.16-3.99-11.87-7.27-23.15-9.85V39.6h115.17v359.45c0,13.46,2.17,22.26,6.53,26.42c4.35,4.16,12.07,7.62,23.15,10.39v14.54
		H561.6V435.85z"/>
	<path d="M766.49,328.49c26.31-16.06,67.57-32.21,123.77-48.47V235.8c0-18-3.81-31.31-11.43-39.92
		c-7.62-8.61-21.13-12.91-40.52-12.91c-10.89,0-19.84,2.03-26.86,6.08c-7.03,4.06-10.54,9.15-10.54,15.29
		c0,2.37,0.39,4.36,1.19,5.94c0.79,1.59,1.97,3.27,3.56,5.05l3.56,4.16c2.77,3.37,4.99,7.08,6.68,11.13
		c1.68,4.06,2.52,8.36,2.52,12.91c0,11.48-3.81,20.33-11.43,26.57c-7.62,6.23-16.47,9.35-26.57,9.35
		c-11.68,0-21.62-3.45-29.83-10.36c-8.22-6.91-12.32-16.88-12.32-29.9c0-23.29,10.98-41.75,32.95-55.36s48.98-20.43,81.03-20.43
		c34.43,0,63.22,6.63,86.37,19.89c22.95,13.46,34.43,38.19,34.43,74.2v147.22c0,4.36,1.13,8.07,3.41,11.13
		c2.27,3.07,4.79,4.6,7.57,4.6c2.37,0,4.5-0.45,6.38-1.34c1.87-0.89,4.79-3.31,8.76-7.27l9.2,12.76
		c-11.87,13.85-25.04,23.55-39.48,29.09c-9.11,3.56-18.7,5.34-28.79,5.34c-18.01,0-31.17-5.25-39.48-15.76
		c-4.75-5.95-8.22-14.77-10.39-26.47c-16.82,16.85-35.82,28.74-56.99,35.68c-12.87,4.36-25.53,6.54-37.99,6.54
		c-16.62,0-32.16-5.31-46.6-15.9c-14.45-10.6-21.67-27.1-21.67-49.5C727.01,366.24,740.17,344.54,766.49,328.49z M872.46,406.74
		c4.75-3.57,10.39-9.12,16.92-16.66V301.1c-16.23,3.97-30.48,10.22-42.74,18.75c-20.78,14.49-31.17,32.94-31.17,55.35
		c0,13.3,3.01,23.36,9.05,30.21c6.03,6.84,12.81,10.26,20.33,10.26C854.74,415.67,863.94,412.7,872.46,406.74z"/>
	<path d="M1229.46,181.48c18.7,12.47,28.05,28.49,28.05,48.08c0,10.49-3.71,19.59-11.13,27.31c-7.42,7.72-16.87,11.58-28.35,11.58
		c-7.72,0-14.45-1.78-20.18-5.34c-10.88-6.33-16.33-17.81-16.33-34.43c0-1.78,0.1-4.4,0.3-7.87c0.2-3.46,0.3-7.17,0.3-11.13
		c0-10.69-2.47-18-7.42-21.96c-5.14-3.96-10.98-5.94-17.51-5.94c-18.8,0-32.16,10.34-40.07,31.02
		c-7.92,20.68-11.87,44.37-11.87,71.09c0,37.99,7.52,69.85,22.56,95.58c15.04,25.73,35.32,38.59,60.85,38.59
		c16.03,0,29.68-3.56,40.96-10.69c6.73-4.16,15.04-11.77,24.93-22.86l11.28,10.39c-19.79,27.51-42.94,46.41-69.46,56.69
		c-14.05,5.34-28.99,8.01-44.82,8.01c-38.98,0-70.84-13.95-95.58-41.85s-37.1-61.93-37.1-102.11c0-42.34,13.11-78.41,39.33-108.19
		c26.22-29.78,61.19-44.67,104.93-44.67C1188.65,162.78,1210.76,169.01,1229.46,181.48z"/>
	<path d="M1317.75,202.11c24.86-25.82,54.83-38.73,89.9-38.73c20.01,0,38.83,5.25,56.46,15.73c17.64,10.49,31.21,25.03,40.71,43.63
		c7.13,14.05,12.09,32.26,14.86,54.61c1.39,10.49,2.08,18.5,2.08,24.04h-155.24c1.39,24.34,5.35,45.41,11.9,63.22
		c11.9,33.44,32.82,50.16,62.76,50.16c14.28,0,27.76-4.45,40.45-13.36c7.73-5.34,17.35-14.34,28.85-27.01l13.95,8.61
		c-18.82,30.87-40.61,52.34-65.38,64.41c-16.04,7.72-34.47,11.58-55.28,11.58c-29.91,0-57.95-11.77-84.1-35.32
		c-26.15-23.55-39.23-61.14-39.23-112.79C1280.45,264.19,1292.88,227.93,1317.75,202.11z M1446.97,278.83
		c-0.4-35.81-3.18-60.85-8.34-75.1c-5.17-14.25-15.49-21.37-30.98-21.37c-15.89,0-26.76,8.21-32.62,24.64
		c-5.86,16.43-9.19,40.37-9.98,71.83H1446.97z"/>
	<circle cx="1653.72" cy="358.28" r="101.31"/>
</g>
</svg>
